<svg class="diamond" xmlns="http://www.w3.org/2000/svg" width="45" height="47" viewBox="0 0 45 47">
                <path id="Polygon_16" data-name="Polygon 16" d="M21.845.568a1,1,0,0,1,1.31,0L44.128,18.744a1,1,0,0,1,0,1.511L23.155,38.432a1,1,0,0,1-1.31,0L.872,20.256a1,1,0,0,1,0-1.511Z" fill="#421cff" opacity="0.56"/>
                <path id="Polygon_17" data-name="Polygon 17" d="M21.845.568a1,1,0,0,1,1.31,0L44.128,18.744a1,1,0,0,1,0,1.511L23.155,38.432a1,1,0,0,1-1.31,0L.872,20.256a1,1,0,0,1,0-1.511Z" transform="translate(45 47) rotate(180)" fill="#421cff" opacity="0.56"/>
              </svg>